<?xml version="1.0" encoding="UTF-8"?>
<svg width="1440px" height="1028px" viewBox="0 0 1440 1028" version="1.1" xmlns="http://www.w3.org/2000/svg" xmlns:xlink="http://www.w3.org/1999/xlink">
    <!-- Generator: Sketch 52.5 (67469) - http://www.bohemiancoding.com/sketch -->
    <title>Group 2</title>
    <desc>Created with Sketch.</desc>
    <g stroke="none" stroke-width="1" fill="none" fill-rule="evenodd" opacity="0.400000006">
        <g transform="translate(0.000000, -866.000000)" fill="#222925" id="Group-2">
            <g transform="translate(0.000000, 865.500000)">
                <path d="M367.145523,346.562313 C399.695342,338.238621 433.150387,330.877496 466.838701,329.641649 C493.582891,328.663415 517.754152,334.581557 542.447658,344.485742 C585.414533,361.716238 623.752572,388.220812 660.074744,416.539121 C724.76529,466.975616 787.643643,529.593041 870.571,547.444942 C957.089665,566.074905 1046.61472,548.113344 1132.78871,536.47201 C1174.2254,530.874144 1216.20001,525.91683 1258.08062,528.083914 C1308.40071,530.686156 1359.13337,540.012452 1409.15752,546.088991 C1420.69741,547.49368 1432.32259,548.891405 1444,550.329166 L1444,536.917612 C1431.48004,535.354526 1419.01926,533.843659 1406.64726,532.332792 C1356.54303,526.210996 1305.7564,516.980435 1255.34057,514.428672 C1214.65068,512.366025 1173.85809,516.292887 1133.45544,520.787193 C1048.4861,530.231852 961.352929,544.37273 876.306996,528.022992 C792.460487,511.904758 728.1477,450.636323 662.207247,400.939595 C625.55606,373.314056 586.98301,347.333413 543.890796,330.839202 C518.849126,321.253553 494.620418,316.310164 467.723036,317.744443 C433.836269,319.547736 400.271553,327.070739 367.52154,335.570235 C275.362624,359.488232 186.107393,393.88134 96.5005166,425.722685 C64.4712024,437.104665 32.3809595,448.439647 0,458.83469 L0,469.966019 C31.8935304,459.616233 63.5067891,448.3648 95.0660824,437.087258 C184.953231,404.965672 274.54444,370.248807 367.145523,346.562313" id="Fill-8"></path>
                <path d="M350.879318,280.08818 C407.816259,264.936026 466.020516,252.002109 523.965391,268.385071 C570.018737,281.409386 612.256209,305.137214 653.121916,329.471753 C693.441007,353.477729 733.001101,379.124783 775.534512,399.151494 C816.226138,418.315943 856.320663,427.567866 900.946537,431.166416 C981.553384,437.666404 1062.32213,441.649147 1143.09435,445.458047 C1228.11069,449.468604 1312.87809,455.22976 1397.69598,462.386875 C1413.00821,463.678529 1428.46668,465.017119 1444,466.5 L1444,452.564747 C1428.5955,451.267879 1413.2676,450.127469 1398.08418,449.042689 C1314.5928,443.092044 1230.95693,439.38745 1147.52647,432.607574 C1067.17901,426.07977 986.935994,418.355927 906.494525,413.001563 C883.627137,411.480437 860.986055,410.753774 838.526019,405.740142 C817.348965,401.011614 796.798606,393.774531 776.86972,385.26144 C732.602453,366.354278 691.355507,341.237446 649.541053,317.605232 C607.357546,293.766145 563.94154,270.246929 516.848926,257.638098 C459.264401,242.216488 402.054151,254.411573 345.557637,269.382929 C260.912092,291.819104 178.620134,322.488481 95.7745954,350.607582 C64.4416084,361.245033 32.4505922,372.635225 0,382.61555 L0,395.95626 C32.6995292,385.73777 64.9272967,374.114629 96.4639594,363.31898 C180.820528,334.447139 264.637443,303.037191 350.879318,280.08818" id="Fill-15"></path>
                <path d="M247.337192,160.070614 C299.244909,146.109934 349.988019,135.973812 403.770598,144.326534 C465.064807,153.846129 523.826126,176.09335 582.564814,195.231812 C642.036386,214.603649 703.059027,233.129067 765.888638,236.617495 C822.433895,239.757603 876.707385,221.982816 933.364054,230.18576 C979.471365,236.863061 1022.15449,255.357131 1063.61555,275.827918 C1100.87429,294.219233 1138.50381,315.357054 1179.9318,322.537678 C1213.43733,328.344178 1245.42835,319.994939 1278.29326,313.956806 C1317.62356,306.732642 1357.05658,299.875955 1396.7716,295.100483 C1412.29796,293.231745 1428.08892,291.589414 1444,290.415574 L1444,276.521075 C1426.73805,277.97183 1409.61362,280.01647 1392.82169,282.322351 C1353.26333,287.752665 1314.03225,295.293801 1274.9004,303.181516 C1243.70146,309.472181 1213.00909,318.279461 1180.98152,313.458708 C1138.77364,307.108828 1100.74547,284.797167 1063.45888,265.371341 C1021.77673,243.658791 978.879487,223.679136 932.037551,216.392274 C904.283686,212.073101 875.997131,212.21243 848.236303,216.421881 C819.227308,220.821167 791.630117,225.556582 762.088432,224.469823 C698.317039,222.130852 636.154161,204.00426 575.707731,184.85709 C516.079485,165.967677 456.468647,143.682141 394.373661,134.303615 C340.578897,126.177302 290.512965,136.921243 238.746254,151.101365 C160.160498,172.625821 80.8853772,203.19964 0,220.800268 L0,231.963935 C22.7159368,226.580644 45.2229754,220.305653 67.4723729,213.886109 C127.598493,196.53453 186.894243,176.323242 247.337192,160.070614" id="Fill-16"></path>
                <path d="M385.66957,123.813443 C448.43303,133.138557 508.731491,155.505957 569.104807,174.182275 C630.360718,193.133424 693.51064,210.901757 758.070624,212.108926 C788.031846,212.667284 815.830972,206.928887 845.186389,202.305468 C873.436387,197.857731 902.266078,197.739449 930.495186,202.423749 C978.127453,210.326004 1021.2806,231.776722 1063.25346,254.660735 C1100.62013,275.033003 1139.19318,298.402318 1182.26624,303.629321 C1214.75513,307.570882 1246.59818,297.240375 1278.04954,290.44614 C1317.20228,281.987265 1356.48733,273.954553 1396.13968,268.181366 C1411.85753,265.892269 1427.8661,263.862348 1444,262.37861 L1444,249.517224 C1427.23418,251.159251 1410.60414,253.422257 1394.29094,255.96879 C1354.76566,262.136828 1315.64599,270.609618 1276.6534,279.480739 C1245.12196,286.65765 1212.94294,297.659579 1180.24689,293.933708 C1136.51928,288.951965 1097.62244,264.425925 1060.12173,243.250038 C1017.81637,219.360632 974.191463,196.975837 925.702713,189.103153 C896.84517,184.418853 867.380081,184.931986 838.606096,189.983307 C809.080079,195.168564 781.160836,201.162658 750.931528,200.802595 C685.972897,200.032025 622.326842,182.343706 560.653135,163.463874 C500.097033,144.924971 439.584451,122.552353 376.636464,113.509028 C348.520509,109.470059 320.531634,109.047376 292.680284,115.029294 C269.315022,120.049305 246.219587,126.460864 223.259935,133.056803 C149.779999,154.166592 75.6681451,180.783433 0,196.302676 L0,208.019513 C78.2184438,191.507052 154.854484,162.955959 230.829013,141.708755 C282.506942,127.254047 331.784283,115.808562 385.66957,123.813443" id="Fill-17"></path>
                <path d="M403.892455,9.17042776 C461.034813,14.8936438 517.280649,27.388284 573.820684,37.0824617 C630.139634,46.739952 687.492631,54.5578372 744.748142,51.0655573 C772.343592,49.3831834 799.193972,42.5191675 826.772014,41.0726404 C854.853153,39.596414 882.958663,42.713086 910.226839,49.5054743 C1004.0639,72.8822613 1089.03672,148.505233 1189.79354,137.39248 C1259.05896,129.75279 1327.447,116.195966 1396.46,106.765587 C1412.16566,104.622002 1428.04366,102.630406 1444,101.058094 L1444,86.0477547 C1426.98176,87.8576606 1410.04882,90.1217901 1393.30737,92.5326686 C1326.06305,102.216364 1259.38449,115.105829 1191.82333,122.54636 C1090.0081,133.762186 1006.58809,60.9134722 912.359342,35.7949128 C885.578594,28.6531218 857.937883,24.9477062 830.204908,25.7618145 C802.934991,26.5636937 776.370105,33.101018 749.188969,35.0332149 C692.955319,39.0303817 636.497102,32.5367327 580.935408,24.2069725 C527.205054,16.1532405 473.713192,5.65718371 419.589413,0.5 L333.572104,0.5 C309.700263,2.71870708 285.911983,6.51671433 261.601456,11.155035 C174.821669,27.7079875 88.0296952,49.1281194 0,58.3366273 L0,70.2198128 C85.0581185,60.0871348 168.847181,38.3245882 252.547461,21.023914 C303.591732,10.4719528 351.688799,3.94336351 403.892455,9.17042776" id="Fill-19"></path>
                <path d="M280.109836,84.3902084 C307.095999,78.1305102 335.055281,79.3019157 362.288641,83.2745841 C424.681306,92.3773809 484.756942,114.21224 544.98403,132.090119 C606.379207,150.313144 669.778065,167.242743 734.273639,167.288065 C764.623063,167.308983 792.469191,160.880198 822.010876,155.164367 C851.796276,149.40147 882.396379,148.475851 912.390676,153.189363 C962.804772,161.112039 1007.95463,184.637766 1052.03911,209.172784 C1091.30675,231.028561 1132.58329,255.86166 1178.61749,258.314291 C1212.04468,260.097546 1246.35098,248.624048 1278.75631,241.640937 C1315.82704,233.653765 1352.97784,225.896689 1390.46636,220.121591 C1408.03992,217.409229 1425.95642,215.026325 1444,213.377293 L1444,200.880558 C1425.48988,202.459864 1407.10162,204.793959 1389.05804,207.44008 C1351.56081,212.941502 1314.36997,220.304623 1277.22091,227.753158 C1244.57883,234.298735 1210.01488,245.017444 1176.49717,243.45034 C1129.97728,241.274873 1087.91738,217.288951 1047.79848,195.870708 C1003.1552,172.038184 957.549241,149.087701 906.971509,141.405582 C876.991138,136.854183 846.438038,137.751912 816.675269,143.439853 C787.408633,149.03192 759.719179,154.955187 729.691805,154.82445 C665.986563,154.547287 603.32233,138.339358 542.496401,120.822314 C482.748038,103.613809 423.147645,82.7254878 361.397342,73.87022 C334.320655,69.9881962 306.262147,68.564032 279.368247,74.5186766 C256.441671,79.5947671 233.793626,86.8393523 211.276143,93.4633715 C141.632969,113.955995 71.5406651,137.068592 0,151.059218 L0,162.346198 C71.6712265,148.189972 141.855794,124.71654 211.537265,103.842164 C234.228831,97.042085 257.023104,89.7469481 280.109836,84.3902084" id="Fill-20"></path>
                <path d="M289.433658,46.3137625 C316.338003,41.5873292 344.419142,43.4307256 371.333932,47.0056913 C431.190225,54.9628732 489.413631,72.6874346 547.885974,87.214446 C606.885785,101.874252 667.353105,115.026142 728.452343,114.320235 C757.600603,113.983007 784.776516,107.70847 813.386863,103.403135 C842.672648,98.9964568 872.503309,99.3074753 901.681163,104.395599 C952.083072,113.18624 997.915334,135.89234 1043.48995,158.168605 C1085.55335,178.730774 1129.88502,200.01807 1177.75056,199.490387 C1210.02881,199.133938 1243.32196,190.946114 1275.08667,185.552214 C1312.87983,179.132652 1350.63818,172.423038 1388.64024,167.329673 C1406.85964,164.888702 1425.37499,162.70633 1444,161.203657 L1444,147.02261 C1426.72934,148.453644 1409.55269,150.442066 1392.61627,152.654142 C1354.26778,157.667131 1316.15779,164.296369 1278.00254,170.5744 C1245.76607,175.879188 1212.30058,183.422261 1179.61846,184.542277 C1131.40824,186.195218 1086.44464,165.835736 1043.88686,145.46577 C998.195606,123.59313 952.533944,100.733268 902.358341,91.2576868 C873.584357,85.8288409 844.117527,84.928984 815.084161,88.7241089 C786.719269,92.4318691 759.640842,98.9877203 730.839004,99.6097573 C670.662401,100.909745 610.943632,88.961741 552.589665,75.4324352 C494.564712,61.9817575 436.823513,45.4453568 377.621767,37.9302406 C350.701755,34.5107841 322.763363,32.733785 295.824201,37.0181526 C272.854105,40.6717466 250.059832,47.1891573 227.526681,52.8818447 C152.305926,71.8819315 76.8257892,94.2298357 0,106.635631 L0,117.987807 C74.8325523,105.033361 148.298562,82.5019911 221.446003,63.0877953 C243.879927,57.1312664 266.557566,50.3307939 289.433658,46.3137625" id="Fill-21"></path>
                <path d="M281.65046,64.1740833 C308.619215,58.6732131 336.917956,60.4817902 363.965049,64.3715415 C425.254035,73.1820204 484.537599,93.1986876 544.059656,109.641886 C604.389451,126.307006 666.456584,141.553224 729.418497,141.37324 C759.259603,141.289364 786.811532,135.003903 815.97546,129.925908 C845.623335,124.762289 875.955351,124.395332 905.671118,129.226941 C956.264518,137.453783 1001.99581,160.458534 1047.1126,183.735882 C1088.05316,204.856917 1131.14886,227.744591 1178.30588,228.480254 C1212.20135,229.007974 1247.34847,218.836257 1280.52324,212.592734 C1318.00306,205.53841 1355.51247,198.508549 1393.30911,193.34493 C1409.99138,191.066298 1426.94346,189.063758 1444,187.671066 L1444,174.19673 C1426.34636,175.608643 1408.79543,177.656616 1391.52478,179.970197 C1353.68809,185.039455 1316.11427,191.856131 1278.54045,198.555729 C1245.22119,204.496949 1209.95047,214.037848 1175.98711,213.545076 C1128.5533,212.858341 1084.98584,190.580516 1043.50214,169.779258 C998.136418,147.031378 952.220597,124.43727 901.656791,116.289062 C872.10292,111.525602 841.944986,111.796452 812.441599,116.802803 C783.622353,121.690329 756.321101,127.608832 726.869939,127.673487 C664.868958,127.815028 603.675716,113.477467 544.050951,97.7349833 C485.174739,82.1882101 426.505684,63.323091 366.024437,55.0211106 C339.11835,51.3305649 310.960616,49.5359671 284.115458,54.7362815 C261.298554,59.1572478 238.709697,66.1748763 216.327997,72.3799558 C144.928338,92.1764484 73.1561444,114.875401 0,128.28683 L0,139.541946 C72.3101068,125.737348 143.201447,102.725608 213.678472,82.5149771 C236.1211,76.0792386 258.760441,68.8414354 281.65046,64.1740833" id="Fill-22"></path>
                <path d="M265.873424,179.932636 C318.047487,166.199935 369.857718,156.795982 423.696003,165.674974 C482.748038,175.41553 539.173179,197.664459 595.38594,217.457757 C652.260211,237.484759 710.286905,257.101907 770.545327,263.490386 C825.0399,269.266701 878.24975,254.548608 932.693839,260.741753 C977.458979,265.834398 1019.85835,280.962345 1061.06526,298.586036 C1098.39362,314.552874 1135.42431,333.118356 1175.33953,341.767133 C1207.25569,348.682317 1236.78519,344.705868 1268.70657,340.15388 C1310.18505,334.232808 1351.70182,328.447773 1393.43445,324.645729 C1410.06101,323.131888 1426.97132,321.823846 1444,320.991931 L1444,306.511029 C1427.63979,307.52607 1411.3997,309.00503 1395.43465,310.696765 C1353.72813,315.119692 1312.28795,321.680833 1270.91393,328.482654 C1238.58867,333.798538 1208.40985,339.464978 1175.83218,332.675366 C1135.32682,324.235876 1098.17602,304.294333 1060.88943,287.118864 C1019.58156,268.091207 976.988958,251.503485 931.56927,245.896343 C876.089394,239.049177 822.212811,255.347386 766.708564,250.645409 C705.21242,245.437657 645.766959,226.305356 587.62189,206.606237 C530.26193,187.175703 472.73137,165.036649 412.648771,155.608279 C359.021125,147.189718 307.729657,157.073287 255.88635,170.884471 C193.373568,187.538467 132.142029,208.658992 70.1114534,226.97333 C47.0142774,233.792591 23.6246439,240.543834 0,246.344566 L0,259.301162 C24.801437,253.015582 49.3400105,245.714962 73.5391244,238.424805 C137.688275,219.098914 201.062762,196.994741 265.873424,179.932636" id="Fill-23"></path>
                <path d="M287.287229,104.37322 C314.826973,98.0109228 342.791477,98.671375 370.637605,102.747358 C433.864122,112.004144 494.625641,134.710454 555.510758,153.257136 C617.530888,172.152341 681.742709,189.721413 747.072134,189.482675 C777.632198,189.37289 805.638481,182.355368 835.429103,176.960223 C864.721851,171.655694 894.759669,171.138137 924.12205,176.186501 C973.465542,184.669564 1017.39509,208.478952 1060.13914,233.417555 C1097.85745,255.418105 1137.53244,280.799334 1182.2175,284.169557 C1215.36616,286.666728 1248.82294,274.431808 1280.72518,266.938552 C1317.69145,258.258572 1354.78133,249.995079 1392.25592,243.822726 C1409.22367,241.025825 1426.54308,238.547822 1444,236.772095 L1444,225.192399 C1426.35333,226.961156 1408.84592,229.4531 1391.68493,232.277883 C1354.18597,238.44675 1317.06476,246.706759 1280.06889,255.343173 C1247.95253,262.838172 1213.98395,275.200303 1180.6525,273.100448 C1135.25022,270.23907 1094.95376,244.401275 1056.76718,222.034776 C1013.4678,196.677944 968.939415,172.450328 918.817777,164.19032 C888.894853,159.256969 858.331308,160.145704 828.594651,165.943393 C798.809251,171.753281 770.858674,178.784744 740.227237,178.94158 C675.031854,179.276162 610.929705,161.736714 549.041877,142.9025 C488.421365,124.456891 427.92271,101.773235 364.974723,92.5739552 C337.560318,88.5676768 309.856937,87.8061529 282.788955,94.3827925 C259.491585,100.042815 236.486672,107.295591 213.54617,114.234695 C143.238004,135.508573 72.3867028,159.365011 0,173.544692 L0,184.476134 C73.8838064,169.754498 146.213062,144.685198 217.962625,123.435717 C240.90835,116.639507 263.960265,109.761395 287.287229,104.37322" id="Fill-24"></path>
                <path d="M366.033141,323.21491 C424.629082,307.839877 484.353073,294.892938 542.889826,316.005364 C586.265793,331.6498 625.254898,357.018778 662.414404,383.863384 C730.050414,432.72248 796.098797,492.27249 881.177806,506.582081 C964.851974,520.655294 1049.86135,510.447565 1133.68523,503.448328 C1173.10606,500.158147 1212.77408,497.328557 1252.34462,499.316917 C1302.76046,501.852772 1353.48093,510.647444 1403.60257,516.631645 C1416.97554,518.228938 1430.45643,519.831446 1444,521.5 L1444,507.965591 C1428.95063,506.173633 1413.97437,504.475531 1399.13389,502.787858 C1350.58944,497.265986 1301.64111,489.524589 1252.86512,486.743665 C1214.20851,484.539783 1175.42483,486.192695 1136.79781,488.267959 C1053.74511,492.727866 970.180618,499.490725 887.397749,487.79694 C800.261094,475.487876 732.395296,418.511959 662.34129,369.986574 C624.464567,343.746819 584.89751,318.753265 541.053263,303.699776 C482.532177,283.607601 422.799482,296.836108 364.516888,312.207665 C274.015231,336.076683 186.222287,369.503389 97.9871753,400.408144 C65.4739136,411.794289 32.8875376,423.097007 0,433.405544 L0,445.443469 C32.6037842,435.10886 64.9133702,423.809619 97.1550642,412.446068 C186.12306,381.089413 274.681964,347.18995 366.033141,323.21491" id="Fill-25"></path>
                <path d="M338.879858,259.897069 C394.854127,245.117168 451.101704,233.637346 508.245803,248.053664 C556.51521,260.232817 601.247275,283.538647 644.891328,306.87405 C688.336928,330.110295 731.409993,354.668659 777.517304,372.371138 C798.297451,380.347344 819.697329,386.905751 841.649047,390.753814 C864.739259,394.801934 888.094077,394.480102 911.426263,395.812659 C991.881658,400.401805 1071.52061,412.266085 1151.50598,421.503523 C1233.46545,430.968852 1315.85315,431.990015 1398.15903,436.622651 C1413.3146,437.47507 1428.61813,438.398814 1444,439.5 L1444,425.275041 C1428.66165,424.384351 1413.39816,423.688498 1398.29134,423.076149 C1317.09261,419.784768 1235.85211,421.800999 1155.25745,410.023701 C1075.48619,398.366437 996.52442,382.234843 915.825311,377.997104 C892.035289,376.746309 868.085112,377.924039 844.425652,374.862289 C821.718419,371.925793 799.474244,366.078895 777.844578,358.657631 C729.904185,342.211165 684.989334,318.232098 639.893439,295.402927 C594.754023,272.55462 548.650193,249.44015 499.148287,237.657632 C442.484654,224.173756 387.077892,234.969903 331.65024,249.542788 C250.796198,270.799333 172.140809,299.793754 92.8883188,326.187428 C62.464039,336.320776 31.4443993,347.054296 0,356.406549 L0,370.066128 C31.9997203,360.383345 63.5572728,349.301899 94.4933532,338.895429 C175.580665,311.618023 256.091767,281.760745 338.879858,259.897069" id="Fill-27"></path>
                <path d="M284.804822,198.492524 C337.426275,184.748123 390.101693,175.428587 444.288142,184.991726 C500.582721,194.927228 554.107658,217.114196 607.174761,237.597686 C660.849408,258.310859 715.251718,279.151053 772.228698,288.738551 C798.0607,293.085116 824.388834,294.976515 850.544628,292.937214 C876.712607,290.899653 902.12333,288.827292 928.404463,290.918794 C1013.25194,297.668323 1086.90248,338.812786 1168.41803,358.135684 C1199.86765,365.589921 1229.57646,365.645601 1261.58314,362.62841 C1305.13667,358.520228 1348.68498,354.248484 1392.37778,351.85596 C1409.3699,350.92505 1426.62663,350.169882 1444,349.830579 L1444,335.118728 C1426.77983,335.712074 1409.67629,336.745644 1392.8478,337.972357 C1351.15346,341.010428 1309.63146,345.891178 1268.1234,350.811949 C1235.0287,354.735689 1204.61487,357.095153 1171.82481,349.505195 C1132.58677,340.420562 1095.7058,323.357947 1058.30606,308.849678 C1017.14093,292.879794 974.849493,279.608678 930.69538,275.401314 C877.264446,270.311762 824.970267,283.139174 771.480146,275.829359 C712.831981,267.818316 656.601812,247.597569 601.311685,227.25328 C546.662179,207.145633 491.678436,184.976066 434.001647,175.171065 C380.048468,165.997691 327.787365,175.292866 275.440961,188.979847 C208.335901,206.524447 142.792354,229.562283 76.5037378,249.859592 C51.3506555,257.562651 25.8180749,265.357931 0,272.08136 L0,285.479498 C26.7964147,278.315844 53.2794821,270.024659 79.3482348,261.905736 C147.757168,240.606177 215.443662,216.60959 284.804822,198.492524" id="Fill-29"></path>
                <path d="M361.299856,302.387038 C419.197729,287.041914 478.618817,273.723899 537.044158,292.655177 C581.508137,307.064177 621.842895,331.666139 660.605694,357.292966 C733.660871,405.592086 803.284895,459.30611 892.80299,469.951474 C974.678893,479.686814 1057.14841,476.398201 1139.35855,474.663413 C1177.24398,473.86301 1215.206,473.398428 1253.05139,475.702198 C1302.45929,478.71241 1351.9995,485.578479 1401.22984,490.829821 C1415.38617,492.338407 1429.6574,493.871353 1444,495.5 L1444,481.771343 C1427.94269,480.080056 1411.96546,478.527969 1396.13968,477.005463 C1311.14946,468.843089 1226.87123,461.540279 1141.46843,460.522375 C1059.98943,459.551451 978.426874,459.29915 897.256003,451.295116 C853.744252,447.004259 814.594991,435.621131 775.595441,415.654548 C734.576541,394.652661 696.5327,368.427272 657.588856,343.93145 C617.840754,318.929286 576.633846,294.732746 531.440464,280.984949 C473.19965,263.269935 414.316474,276.45745 356.846843,291.731233 C268.919856,315.09779 183.517056,347.308804 97.6059361,376.993328 C65.7263323,388.009313 33.1103623,399.952723 0,410.467587 L0,423.3245 C33.3001115,412.590396 66.0936449,400.427745 98.1003285,389.284739 C185.278764,358.935533 271.980214,326.059836 361.299856,302.387038" id="Fill-30"></path>
                <path d="M323.290831,237.923616 C378.128346,223.55098 432.779592,213.328853 488.917498,225.902296 C539.756353,237.28789 587.355545,260.222798 634.089551,282.603841 C680.926265,305.038877 727.794313,328.419665 777.639161,343.536013 C800.153163,350.363537 823.274711,355.452829 846.749644,357.414001 C870.976611,359.437874 895.384623,357.593398 919.681223,358.857883 C1000.85035,363.079801 1078.97479,383.921168 1158.67467,397.851407 C1237.87842,411.69282 1318.15277,406.192482 1398.17992,408.038701 C1413.31634,408.388786 1428.61813,408.834665 1444,409.5 L1444,394.977577 C1428.62683,394.545632 1413.33723,394.354043 1398.213,394.273924 C1319.47231,393.850687 1239.81943,402.938958 1162.02749,387.583995 C1082.18312,371.819729 1005.00569,346.167745 923.1646,341.607934 C898.347496,340.226753 873.65573,342.457891 848.89085,341.477305 C824.688255,340.522845 800.72067,336.224291 777.341481,330.013334 C725.640921,316.278167 676.851009,293.51743 628.287404,271.496922 C579.948364,249.579175 530.864254,226.804505 478.66582,215.758546 C423.039715,203.988033 368.990791,213.708547 314.719042,227.884368 C238.178747,247.872294 163.661283,275.006478 88.5014569,299.489772 C59.4837582,308.943803 29.9351099,318.838488 0,327.421662 L0,341.209081 C30.7202189,332.227055 61.0348272,321.898682 90.7854104,312.089341 C167.99418,286.632429 244.586699,258.552493 323.290831,237.923616" id="Fill-32"></path>
                <path d="M305.283808,217.357724 C359.005458,203.358874 412.518209,194.00249 467.644699,205.017894 C521.279308,215.735301 571.928414,238.365585 621.936899,259.824796 C672.286584,281.430392 723.061029,303.536133 776.655599,315.821941 C800.906937,321.382794 825.737968,324.831533 850.654299,324.720003 C875.955351,324.601501 900.829903,322.264584 926.188401,323.86261 C1008.89816,329.073187 1084.97017,359.956746 1165.18881,377.219613 C1241.47321,393.639029 1320.82319,380.752001 1398.09811,379.697687 C1413.24845,379.492052 1428.58157,379.411889 1444,379.598354 L1444,364.841443 C1426.59878,364.905922 1409.30897,365.352045 1392.26811,365.960236 C1348.59794,367.519924 1305.02352,370.796139 1261.43517,373.786557 C1228.50063,376.050283 1197.50885,374.718885 1165.25323,367.19753 C1084.63593,348.401115 1009.73201,312.786213 926.03695,307.19225 C900.171873,305.461781 875.053607,307.999105 849.27383,308.912263 C823.753436,309.814965 798.215632,307.017983 773.215742,301.967732 C718.033546,290.821628 665.561803,269.299681 613.612306,248.150664 C562.192018,227.219481 510.205964,204.925532 455.351041,194.737896 C400.792058,184.607768 347.67099,194.082653 294.635223,207.952546 C222.899586,226.710622 152.948288,251.778899 82.3076257,274.165209 C55.2866455,282.730422 27.8113117,291.551806 0,299.188176 L0,312.902972 C29.0159579,304.757743 57.666344,295.345594 85.8223377,286.288949 C158.780029,262.82567 231.072727,236.692624 305.283808,217.357724" id="Fill-33"></path>
                <path d="M304.860789,25.4116844 C331.991441,21.7205996 359.853236,23.4524356 386.9247,26.7639159 C445.64598,33.9449126 503.087758,49.2865302 560.870737,61.5528271 C618.671124,73.8261212 677.785829,84.3133502 737.098987,81.927265 C765.561364,80.7832037 792.768612,73.6564363 820.980312,70.9344799 C849.71948,68.1582944 878.705844,70.0773086 906.912321,76.189465 C956.757169,86.9898239 1002.0933,110.437833 1047.9743,131.895106 C1091.23363,152.12435 1137.19298,170.966375 1185.90107,166.956913 C1256.19009,161.170132 1325.73229,144.651215 1395.65052,135.566948 C1411.61034,133.493993 1427.76165,131.613464 1444,130.205254 L1444,115.463656 C1426.72238,117.055546 1409.53354,119.163488 1392.56404,121.45336 C1324.24563,130.674074 1256.49647,144.911865 1187.8856,151.917929 C1138.97383,156.914013 1092.53229,138.969394 1048.88127,118.881846 C1003.00549,97.7674415 957.932221,74.1444991 908.430315,62.6286646 C880.67645,56.1736396 852.111364,53.6616027 823.683803,55.7975338 C795.780228,57.8932302 768.703541,64.9692671 740.669405,66.3862238 C682.357217,69.340841 624.085069,60.149865 566.998417,49.1343386 C509.800353,38.0960709 452.924341,24.1084341 394.962058,17.5991799 C367.920188,14.5605949 340.270772,13.0544224 313.178418,16.3921427 C289.854936,19.2662907 266.674201,25.0898078 243.756329,30.1995986 C163.032848,48.2019461 82.1701011,70.2907267 0,81.3254958 L0,92.9148022 C79.5867269,81.1208242 157.841728,58.7888868 235.894794,40.2145086 C258.642065,34.8020839 281.674831,28.5657251 304.860789,25.4116844" id="Fill-34"></path>
                <path d="M1306.19683,628.140426 C1283.3573,626.468844 1260.28275,623.796054 1237.40144,625.57211 C1192.64674,629.042384 1148.48566,638.89253 1104.58571,647.809375 C1005.2407,667.990247 896.944396,691.86427 796.915241,662.733469 C715.674737,639.073618 659.709172,568.788814 600.697176,512.72987 C567.351803,481.051648 531.489207,451.588272 490.174369,430.872843 C465.92303,418.712083 442.536878,410.430787 415.152067,410.500436 C383.368208,410.580533 351.657464,417.019606 320.937245,424.654906 C234.059971,446.247916 150.413657,479.986015 66.7116354,511.25853 C44.528389,519.54505 22.3225119,527.833311 0,535.775067 L0,543.873534 C19.9132195,536.687473 39.7393981,529.255897 59.5464276,521.820839 C142.139548,490.816474 224.732667,457.363937 310.577636,436.288072 C340.944469,428.830379 372.320976,422.621147 403.721855,422.828354 C431.061405,423.009442 454.346589,431.825296 478.354213,444.325596 C519.216439,465.601702 554.455822,495.561329 587.117053,527.734061 C645.178563,584.930029 699.895961,656.310067 781.298361,680.372143 C883.56969,710.608626 994.712229,686.06597 1096.22804,664.807276 C1140.5632,655.52303 1185.12292,645.119173 1230.33197,641.119565 C1251.4185,639.254706 1272.95068,641.553131 1294.04418,642.805077 C1320.93808,644.405268 1347.80935,646.419873 1374.6371,648.880233 C1397.60894,650.987123 1420.77574,653.287289 1444,655.972268 L1444,641.298911 C1424.74481,639.024863 1405.55229,636.991105 1386.506,635.074009 C1359.77051,632.380324 1332.99499,630.09757 1306.19683,628.140426" id="Fill-35"></path>
                <path d="M1198.11813,690.985279 C1153.64893,695.905184 1109.62886,708.328728 1066.08578,718.192945 C957.728546,742.743653 837.86799,769.137146 728.534161,735.499782 C645.892298,710.075625 595.472981,635.910938 540.09059,574.644002 C509.715053,541.041506 476.552466,509.626991 437.211716,486.734266 C414.076242,473.273393 391.0957,462.746679 364.041645,461.667508 C333.939416,460.468042 303.682255,465.872614 274.483511,472.68412 C192.144551,491.894761 113.12533,524.296047 34.2680064,554.228664 C22.9457248,558.526171 11.5189941,562.987559 0,567.471611 L0,575.086829 C8.51434186,571.769118 16.9747184,568.482789 25.3811295,565.285374 C102.924136,535.781636 180.712597,503.816203 261.813836,485.327333 C290.606969,478.763393 320.484632,473.656943 350.123803,475.232986 C377.003777,476.662583 399.9878,487.773339 422.778592,501.478289 C461.612764,524.836505 494.072061,556.669439 523.692083,590.671176 C578.376405,653.446162 627.333435,728.140846 710.741258,754.027007 C822.433895,788.694726 945.156357,761.771236 1055.79058,736.143101 C1099.43463,726.034806 1143.87598,712.512913 1188.53145,707.751659 C1236.11671,702.680077 1286.11823,706.133774 1333.76269,708.666949 C1370.3425,710.616082 1407.20084,713.34975 1444,717.32124 L1444,701.98097 C1411.9115,698.450563 1379.80385,695.824987 1347.94687,693.738124 C1299.04033,690.531992 1246.9829,685.578963 1198.11813,690.985279" id="Fill-36"></path>
                <path d="M1178.75153,727.26662 C1133.77227,731.919224 1088.95664,746.299685 1045.06714,756.703426 C932.075849,783.489086 806.388774,810.947139 692.264214,775.135705 C607.93898,748.671396 560.4512,673.511919 506.404017,608.974494 C477.5604,574.534041 445.802653,542.266202 407.485504,518.426842 C385.044616,504.470774 362.041444,492.748446 335.354701,490.947832 C306.206441,488.981303 276.734389,493.757907 248.366015,500.066169 C168.596503,517.803351 92.1345445,549.325446 15.9946377,578.390254 C10.6834013,580.416163 5.35127517,582.475255 0,584.558798 L0,592.382998 C2.31006576,591.492296 4.61490907,590.608581 6.91801156,589.728358 C81.6791904,561.185746 156.828572,530.161396 235.282026,513.245056 C263.223899,507.219723 292.326898,502.753991 320.973802,505.158885 C347.469055,507.380398 370.482672,519.61619 392.617176,533.781835 C430.4556,557.996686 461.557058,590.615567 489.678236,625.384356 C543.262361,691.629833 589.395784,766.848689 674.840364,793.854405 C791.325474,830.670061 919.931901,802.738714 1035.1967,774.85103 C1077.64481,764.58526 1120.61516,750.782882 1163.99113,745.092872 C1212.66267,738.706019 1263.46671,740.14162 1312.39066,741.692489 C1356.13394,743.080935 1400.14183,745.794954 1444,750.286883 L1444,735.03144 C1404.79503,730.894044 1365.48736,728.174786 1326.43384,726.431805 C1277.69615,724.262686 1227.38651,722.231537 1178.75153,727.26662" id="Fill-37"></path>
                <path d="M1286.88071,659.036927 C1265.41294,658.025193 1243.29933,655.961741 1221.86289,657.867001 C1176.27435,661.913938 1131.19064,673.371569 1086.5578,682.976092 C982.780661,705.302044 868.682213,730.445903 764.078187,699.094307 C682.423368,674.621461 629.105588,602.31896 572.00501,543.968658 C540.094072,511.360217 505.531867,480.957773 465.165774,459.158548 C441.427977,446.339769 418.262909,436.989049 390.991251,436.531857 C360.006428,436.010344 328.995492,441.962541 299.009899,449.202873 C214.292981,469.654857 132.860987,502.730922 51.4759944,533.348924 C34.5465374,539.718331 17.3733657,546.45975 0,553.121204 L0,560.770054 C14.5619443,555.142934 28.9811415,549.505383 43.2297386,544.123374 C123.392676,513.854785 203.67399,481.140302 287.248931,461.30718 C316.853285,454.280667 347.50039,448.597919 378.058713,449.444507 C405.236367,450.198962 428.302208,460.112916 451.749288,473.241125 C491.619248,495.56534 525.493829,526.433668 556.659698,559.497564 C612.884644,619.149908 664.804547,692.342457 746.884126,717.22556 C853.806921,749.641042 970.749866,723.904397 1076.76569,700.504129 C1120.1434,690.932635 1163.68127,679.860923 1207.87368,674.670135 C1229.31011,672.154706 1251.51425,673.800948 1273.05165,674.484129 C1300.42776,675.353317 1327.78646,676.818767 1355.10338,678.830067 C1384.56498,680.997821 1414.27727,683.575831 1444,686.896128 L1444,671.763572 C1418.76162,668.891776 1393.56153,666.518894 1368.56338,664.408506 C1341.3718,662.112113 1314.13844,660.321586 1286.88071,659.036927" id="Fill-38"></path>
                <path d="M1111.77007,938.504401 C1067.30783,950.842062 1023.46358,964.948964 978.618364,976.004971 C838.893331,1010.44942 680.764369,1034.6389 541.437983,985.911669 C491.288492,968.374254 448.053531,940.937106 412.995193,901.10483 C386.943849,871.510115 365.747646,838.145317 342.176968,806.635086 C316.259666,771.988634 286.946029,740.025645 250.420181,716.34639 C206.311329,687.751226 160.221426,674.154548 107.6992,679.728698 C71.0654217,683.613712 35.2515687,693.064169 0,704.289091 L0,718.018113 C31.8604549,708.498001 64.1787449,700.680956 97.1446193,697.401941 C149.01752,692.247463 194.661774,705.650848 238.258825,733.831564 C274.957014,757.550871 304.493476,789.604412 330.802462,824.156829 C354.815308,855.693181 376.559868,889.056238 403.142162,918.565625 C438.743636,958.082711 482.004709,984.266067 532.490178,1001.17659 C673.324112,1048.34703 832.257332,1026.64424 973.930341,994.568058 C1019.45622,984.259102 1064.0612,971.381613 1108.90816,958.617314 C1155.0764,945.48036 1202.78178,938.041194 1250.4332,932.808354 C1314.78777,925.743585 1379.37386,923.274311 1444,921.404071 L1444,906.214033 C1380.48277,906.875756 1316.99687,908.195721 1253.66764,914.213922 C1205.91178,918.753694 1158.06713,925.659998 1111.77007,938.504401" id="Fill-39"></path>
                <path d="M1254.12896,878.994799 C1206.04756,882.118293 1157.82515,887.752797 1111.00411,899.451066 C1067.31305,910.36759 1024.75353,925.880361 981.292261,937.753128 C846.232621,974.641764 691.808119,1002.37804 556.226234,953.143751 C506.825295,935.205473 464.297106,906.661277 430.283259,866.650891 C404.921279,836.813672 384.466665,803.28759 361.54357,771.630369 C336.268631,736.727507 307.4372,704.611359 271.294332,680.724484 C249.560217,666.361647 224.979864,653.1121 199.530842,646.980281 C175.465771,641.186985 150.225648,641.672086 125.812414,644.715311 C82.8594651,650.07062 41.0676424,662.653589 0,676.953607 L0,689.26087 C38.2666659,676.389982 77.191361,665.316411 117.118767,660.788217 C170.311209,654.755861 217.005175,668.493999 261.765093,697.401149 C298.155157,720.900642 327.348678,752.646856 352.966559,787.300188 C376.161221,818.681703 396.880439,851.96 422.458281,881.525004 C457.001337,921.451631 500.305931,950.294217 549.847876,968.562294 C687.062649,1019.15242 843.971298,992.531183 981.154736,955.69664 C1025.11388,943.893672 1068.03723,928.485599 1111.97897,916.75941 C1158.52496,904.333488 1206.60114,898.093481 1254.55198,894.409852 C1317.65838,889.558839 1380.82048,889.625148 1444,890.387699 L1444,877.235871 C1380.70211,875.565936 1317.40596,874.885398 1254.12896,878.994799" id="Fill-40"></path>
                <path d="M1274.02825,818.600411 C1223.96406,819.579356 1173.67704,822.884387 1124.32659,831.717579 C1081.43109,839.399071 1039.62882,853.840695 997.528872,864.968562 C870.576223,898.519685 727.543636,928.165497 598.87628,886.702542 C550.438013,871.091769 512.09127,845.237843 479.548414,806.448228 C453.803454,775.758906 432.927562,741.415553 409.745086,708.83116 C384.391809,673.193017 355.823242,639.732634 319.800491,614.503418 C298.795778,599.794809 275.017942,585.499766 249.511474,581.011625 C223.470574,576.434489 196.479188,578.706479 170.581035,583.084685 C112.056468,592.980583 55.6052152,613.534942 0,634.593607 L0,644.2993 C51.5073292,625.04671 103.843288,606.750381 157.986216,598.060279 C183.50487,593.961273 210.061052,592.066202 235.626708,596.880658 C261.073988,601.670685 284.94931,615.780758 306.021915,630.430036 C341.957625,655.407972 370.413039,688.62231 395.54175,724.159244 C418.482252,756.595311 439.032611,790.82524 464.448557,821.448252 C496.987931,860.653176 535.83603,887.133558 584.350893,903.428371 C714.534501,947.154592 860.392436,918.07765 989.239096,883.779667 C1031.73073,872.468574 1073.7593,857.754731 1116.89678,849.148388 C1166.16715,839.320546 1216.53251,835.345435 1266.68548,833.78715 C1325.81411,831.942684 1384.95319,833.60218 1444,837.177686 L1444,823.383457 C1387.41644,819.410091 1330.70233,817.494081 1274.02825,818.600411" id="Fill-41"></path>
                <path d="M1259.67869,848.997098 C1211.5468,851.091221 1163.26521,855.523171 1116.05944,865.45241 C1072.71133,874.570459 1030.55742,889.485207 987.811625,901.0229 C856.637491,936.428018 707.9368,965.597769 575.314306,921.137268 C525.895958,904.570549 485.169516,877.677699 451.822403,837.88763 C426.39253,807.541132 405.955325,773.495539 383.15931,741.223771 C358.166383,705.848246 329.825863,672.843622 293.973712,648.043153 C272.815807,633.405185 248.682844,619.338182 223.296492,613.990598 C198.267008,608.716125 172.140809,610.068688 146.99469,613.759078 C96.6745984,621.139859 47.9229845,637.382799 0,654.92782 L0,665.730916 C44.383901,649.855274 89.544207,635.523678 136.064092,629.190829 C160.84638,625.813773 186.530412,624.87725 211.086394,630.397169 C236.486672,636.103348 260.809384,649.79957 282.205781,664.310464 C318.151936,688.680967 346.650871,721.262589 371.696022,756.399632 C394.486814,788.378954 414.861351,822.163434 440.190256,852.274931 C473.784565,892.212963 515.329192,919.856076 564.757984,937.086022 C698.849729,983.826906 850.372287,955.344751 983.447394,919.23811 C1026.54831,907.545491 1068.90764,892.340038 1112.43506,882.341168 C1159.47545,871.53285 1207.75356,866.502082 1255.88544,863.894438 C1318.59668,860.498235 1381.3114,861.528759 1444,863.917068 L1444,850.711737 C1382.59786,847.67935 1321.13827,846.321565 1259.67869,848.997098" id="Fill-42"></path>
                <path d="M1140.45527,796.330894 C1095.9704,802.643628 1052.38379,817.583357 1008.91905,828.688672 C886.614381,859.931206 749.251639,889.01132 625.460315,849.281413 C578.933467,834.34692 543.135281,808.900512 511.6021,772.017183 C485.354043,741.317435 463.680856,707.079974 439.697604,674.650638 C413.4774,639.198451 384.127205,605.891232 347.54217,580.86195 C326.264149,566.302695 302.867552,552.591654 277.023365,549.08361 C249.927529,545.404527 222.088365,548.628088 195.396399,553.712133 C128.270449,566.491187 63.7696526,591.623442 0,616.073286 L0,624.911462 C59.6752482,602.112668 120.158236,579.27024 182.984365,567.939782 C209.281165,563.197814 236.704274,560.42803 263.279605,564.550418 C288.939265,568.527947 312.516907,582.591538 333.617365,597.232821 C369.894275,622.405218 398.811007,655.831117 424.555967,691.410711 C448.100533,723.951745 469.333293,758.26949 495.287152,789.004143 C527.259019,826.864838 564.225294,852.491012 611.693925,867.741404 C737.924135,908.300325 878.039111,878.933984 1002.6608,846.550026 C1044.42651,835.697779 1086.12259,821.300836 1128.73782,814.251588 C1177.53296,806.181342 1227.15498,803.357453 1276.5594,802.77627 C1332.36133,802.121784 1388.26596,804.271988 1444,808.692822 L1444,794.320313 C1391.99132,789.808725 1339.80333,787.457812 1287.73894,787.398472 C1238.56778,787.342622 1189.18251,789.414288 1140.45527,796.330894" id="Fill-43"></path>
                <path d="M1155.13559,762.058234 C1111.4045,767.703662 1068.1382,782.092872 1025.38545,792.619606 C907.737469,821.58993 776.199505,849.916509 657.247656,812.109939 C612.635707,797.928332 578.315476,772.611136 547.438584,737.927346 C520.34623,707.493327 497.525844,673.591104 472.435431,641.548593 C445.014063,606.53159 414.563671,573.656918 377.186563,549.126523 C355.361925,534.803606 332.282157,522.045568 305.995802,519.414757 C277.865921,516.599021 249.182459,520.667358 221.665346,526.386057 C145.471474,542.225006 72.4928927,572.14961 0,599.828953 L0,608.065066 C68.161737,581.945369 136.955391,554.384657 208.666656,540.075696 C235.776418,534.664041 264.043824,531.002189 291.668868,534.234876 C317.732399,537.287873 340.956654,550.557071 362.487094,565.002108 C399.448146,589.8064 429.325809,622.925311 456.120483,658.176086 C480.634685,690.431436 502.856229,724.511605 529.501193,755.10089 C560.66358,790.88027 595.62095,816.234101 641.167718,830.778579 C762.511451,869.523728 896.920025,840.787175 1016.8624,810.714283 C1059.91457,799.92063 1103.4124,785.028983 1147.50036,779.315517 C1195.57306,773.085659 1244.32119,771.672558 1292.74205,772.140102 C1343.09869,772.626837 1393.64683,775.142507 1444,779.838888 L1444,764.947241 C1397.96928,760.427061 1351.77493,757.806718 1305.78426,756.754742 C1255.80537,755.612049 1204.80984,755.645196 1155.13559,762.058234" id="Fill-44"></path>
                <path d="M1410.85134,557.894801 C1361.08309,551.87977 1310.38002,542.448967 1260.28101,540.507792 C1217.40292,538.850395 1174.51264,544.814938 1132.23339,551.272173 C1044.60582,564.654964 952.457348,584.827515 864.340612,564.061296 C781.958131,544.647805 720.094674,481.010345 656.10916,429.906085 C619.985442,401.053087 581.737925,374.163897 538.797162,356.419991 C514.230736,346.27017 490.097773,339.804229 463.34836,340.559808 C429.898538,341.50341 396.634984,348.752785 364.320176,356.970135 C272.046366,380.433108 182.839877,415.226276 93.3792295,447.414961 C62.3769981,458.569318 31.3242828,469.709747 0,479.981435 L0,489.770876 C30.9030048,479.528784 61.5414053,468.454512 92.1328037,457.364571 C180.891902,425.189813 269.436879,390.438429 361.089217,367.198299 C393.191646,359.057551 426.251524,351.924821 459.485485,351.137906 C486.403757,350.502454 510.519311,357.318328 535.104887,367.811119 C577.967313,386.10691 616.018117,413.453974 651.934678,442.794442 C715.530249,494.748292 776.862756,559.160482 859.417578,579.110189 C949.644186,600.914023 1044.37951,579.850099 1134.00032,565.295639 C1176.85056,558.337006 1220.31879,551.613402 1263.86361,552.657981 C1312.10691,553.819204 1361.14576,562.912259 1409.03044,568.707929 C1420.61733,570.109405 1432.28429,571.514363 1444,572.962845 L1444,561.907723 C1432.89184,560.54803 1421.8359,559.221415 1410.85134,557.894801" id="Fill-50"></path>
                <path d="M1320.83015,599.129856 C1298.36837,596.990366 1275.87004,593.903662 1253.2777,594.795261 C1207.83364,596.590624 1162.83349,605.687365 1118.26506,614.108021 C1023.23031,632.063396 920.629969,654.429838 825.062531,627.671446 C743.867288,604.934807 685.636919,537.102039 624.736135,483.220273 C590.161744,452.62957 553.185025,424.240924 511.085077,404.721341 C486.490797,393.32 462.810447,386.022098 435.479601,386.524383 C402.98723,387.122258 370.653272,393.942207 339.268061,401.879696 C250.472405,424.334777 164.839817,458.455377 79.0627406,490.104528 C52.792053,499.795668 26.486549,509.478118 0,518.613096 L0,527.136294 C24.5855756,518.531409 49.0214408,509.479856 73.427712,500.426565 C158.221226,468.972072 242.910291,435.044391 330.79898,413.011646 C361.869103,405.221888 393.905381,398.58443 426.063516,398.23509 C453.443105,397.93789 476.968522,405.69984 501.418314,417.471378 C543.157912,437.566242 579.615867,466.460648 613.617529,497.560588 C673.613087,552.438234 730.792002,621.409398 811.994209,644.575325 C909.751596,672.461686 1015.13551,649.340947 1112.27665,630.311482 C1155.68743,621.805664 1199.38545,612.575096 1243.62138,609.688263 C1291.87338,606.53899 1342.61823,615.136922 1390.57951,620.227552 C1408.26971,622.104602 1426.10091,624.059862 1444,626.20109 L1444,612.385653 C1429.25179,610.59029 1414.56102,608.906159 1399.97471,607.258526 C1373.62046,604.28653 1347.2314,601.643018 1320.83015,599.129856" id="Fill-51"></path>
                <path d="M1261.11486,566.720298 C1216.91026,566.812427 1172.94416,574.419157 1129.51597,581.907683 C1038.27969,597.637412 940.92965,619.061758 849.141528,595.339401 C767.189029,574.154937 706.885346,508.774611 644.1097,456.334069 C608.570897,426.64766 570.786438,399.054145 528.118983,380.456248 C503.448108,369.703225 479.473559,362.880461 452.365538,363.544486 C419.32829,364.358003 386.475569,371.427602 354.568112,379.533219 C263.887151,402.570693 176.320513,437.086054 88.5589039,469.075689 C59.1495211,479.792207 29.694877,490.496558 0,500.451709 L0,509.548148 C28.1420672,499.984111 56.0734953,489.764741 83.9648847,479.53668 C170.699411,447.733041 257.245929,413.431489 346.918957,390.597395 C378.607071,382.526544 411.231745,375.53169 444.040945,374.714697 C471.295195,374.03329 495.107848,380.88908 519.808317,391.91849 C562.226834,410.85883 599.661389,438.733947 634.752803,468.802778 C696.595369,521.789141 755.727482,588.295875 836.990617,610.679754 C930.254953,636.368111 1030.20055,614.636088 1123.01053,597.819932 C1167.0219,589.844686 1211.47891,581.436608 1256.31194,580.265005 C1304.18096,579.011702 1353.63935,588.061207 1401.12191,593.571566 C1415.32176,595.219459 1429.62955,596.893426 1444,598.657784 L1444,586.050013 C1431.2781,584.475128 1418.60843,582.961083 1406.03101,581.462682 C1358.38656,575.77328 1309.14752,566.617739 1261.11486,566.720298" id="Fill-53"></path>
            </g>
        </g>
    </g>
</svg>